<!--?xml version="1.0" encoding="utf-8"?-->
<!-- Generator: Adobe Illustrator 18.1.1, SVG Export Plug-In . SVG Version: 6.00 Build 0)  -->

<svg version="1.1" id="_x32_" xmlns="http://www.w3.org/2000/svg" xmlns:xlink="http://www.w3.org/1999/xlink" x="0px" y="0px" viewBox="0 0 512 512" style="width: 256px; height: 256px; opacity: 1;" xml:space="preserve">
<style type="text/css">
	.st0{fill:#4B4B4B;}
</style>
<g>
	<path class="st0" d="M392.172,147.731c13.598,34.6-10.914,87.102-45.319,68.762c-25.344-13.528-18.748-38.095,0.456-72.5
		c27.26-48.843-20.194-82.996-20.194-82.996s-9.013,62.081-60.738,51.402C222.128,103.268,220.306,27.526,239.464,0
		c-69.108,8.212-79.267,107.563-46.951,144.15c38.864,43.999,31.578,102.649-18.466,100.592
		c-36.383-1.492-53.216-46.943-33.95-91.712c-65.763,27.213-92.19,109.904-87.338,161.722
		c3.266,34.805,10.411,76.778,39.633,112.682c51.71,72.099,146.821,104.148,234.222,72.208
		c84.417-30.84,135.874-111.889,133.08-197.044C459.254,264.197,450.617,186.932,392.172,147.731z" style="fill: rgb(223, 86, 86);"></path>
</g>
</svg>
