<?xml version="1.0" encoding="UTF-8" standalone="no"?>
<!DOCTYPE svg PUBLIC "-//W3C//DTD SVG 1.1//EN" "http://www.w3.org/Graphics/SVG/1.1/DTD/svg11.dtd">
<svg version="1.1" xmlns="http://www.w3.org/2000/svg" xmlns:xlink="http://www.w3.org/1999/xlink" preserveAspectRatio="xMidYMid meet" viewBox="0 0 307.2 307.2" width="307.2" height="307.2"><defs><path d="M176.29 22.64C172.16 33.11 169.87 38.93 169.41 40.09C143.75 40.22 119.4 56.47 108.76 83.47C94.5 119.64 110.22 161.38 143.87 176.71C177.52 192.03 216.36 175.13 230.62 138.96C241.26 111.96 235.18 81.85 217.41 61.95C217.87 60.79 220.16 54.97 224.29 44.5L176.29 22.64ZM147.69 92.42C140.3 89.06 136.85 79.89 139.98 71.94C143.11 64 151.64 60.28 159.04 63.65C166.43 67.01 169.88 76.19 166.75 84.13C163.62 92.08 155.09 95.79 147.69 92.42Z" id="cojw3Sq4q"></path><path d="M263.92 67.49C260.97 68.13 257.86 67.86 254.87 66.5C250.93 64.7 248.08 61.4 246.59 57.45C245.1 53.5 245.01 48.99 246.68 44.76C249.51 37.58 249.37 29.79 246.84 23.1C244.33 16.4 239.39 10.7 232.71 7.66C226.03 4.62 218.79 4.77 212.56 7.49C206.33 10.19 201.03 15.5 198.2 22.68C198.09 22.97 197.53 24.39 196.52 26.95L206.55 31.52C207.56 28.96 208.12 27.54 208.23 27.25C209.9 23.01 212.97 19.95 216.65 18.34C220.33 16.74 224.52 16.65 228.46 18.44C232.4 20.24 235.25 23.54 236.75 27.49C238.23 31.45 238.32 35.95 236.65 40.19C233.82 47.37 233.96 55.15 236.49 61.84C239.01 68.54 243.94 74.25 250.62 77.28C255.67 79.58 261.06 80.06 266.07 78.97C271.08 77.89 275.74 75.25 279.43 71.33C281.56 69.06 281.58 65.35 279.46 63.05C277.35 60.75 273.9 60.73 271.76 63.01C269.61 65.3 266.86 66.86 263.92 67.49Z" id="a3RxCPfVeS"></path><path d="M279.94 49.91C280.02 48.89 280.63 40.69 280.71 39.66C280.75 38.22 279.7 37.03 278.36 36.99C277.03 36.94 275.91 38.07 275.87 39.51C275.89 40.53 276.05 48.76 276.07 49.79C276.04 50.94 276.88 51.89 277.95 51.93C279.02 51.97 279.91 51.07 279.94 49.91Z" id="i10mC2cVgA"></path><path d="M275.25 81.87C275.17 82.89 274.56 91.1 274.48 92.13C274.44 93.56 275.5 94.76 276.83 94.81C278.17 94.84 279.29 93.71 279.33 92.27C279.31 91.25 279.14 83.02 279.12 82C279.16 80.84 278.32 79.88 277.24 79.85C276.18 79.82 275.28 80.72 275.25 81.87Z" id="a3JtOoiNWJ"></path><path d="M268.71 55.71C269.48 54.92 269.52 53.6 268.79 52.76C268.17 51.98 263.21 45.72 262.59 44.94C261.67 43.89 260.14 43.84 259.17 44.82C258.19 45.81 258.15 47.45 259.07 48.5C259.53 48.97 261.83 51.35 265.97 55.62C267.28 56.21 268.19 56.23 268.71 55.71Z" id="bFtm4PBtv"></path><path d="M286.49 76.08C285.71 76.86 285.67 78.19 286.4 79.02C287.02 79.8 291.99 86.07 292.61 86.85C293.53 87.9 295.06 87.95 296.03 86.96C297 85.98 297.05 84.33 296.13 83.28C295.67 82.81 293.37 80.43 289.22 76.16C287.92 75.58 287.01 75.55 286.49 76.08Z" id="c6K6F3tKIC"></path><path d="M292.57 64.25C291.51 64.22 290.61 65.12 290.58 66.27C290.55 67.42 291.39 68.38 292.46 68.41C293.42 68.49 301.05 69.16 302 69.24C303.34 69.29 304.45 68.15 304.49 66.71C304.53 65.28 303.48 64.07 302.14 64.03C300.23 64.08 293.53 64.23 292.57 64.25Z" id="a3o8TRiEds"></path><path d="M297.09 49.76C298.07 48.77 298.11 47.13 297.2 46.08C296.28 45.03 294.75 44.98 293.78 45.97C293.11 46.71 287.82 52.65 287.15 53.39C286.37 54.18 286.34 55.5 287.07 56.33C287.8 57.17 289.03 57.21 289.81 56.42C291.27 55.09 296.37 50.42 297.09 49.76Z" id="c1fD4nqbzT"></path><path d="M75.79 131.8C71.66 142.27 69.37 148.09 68.91 149.25C43.25 149.38 18.9 165.63 8.26 192.63C-6 228.8 9.73 270.54 43.38 285.87C77.03 301.19 115.86 284.29 130.12 248.12C140.76 221.12 134.68 191.01 116.92 171.11C117.37 169.94 119.67 164.13 123.79 153.66L75.79 131.8ZM47.2 201.58C39.8 198.22 36.35 189.05 39.48 181.1C42.61 173.16 51.15 169.44 58.54 172.81C65.93 176.17 69.39 185.35 66.25 193.29C63.12 201.23 54.59 204.95 47.2 201.58Z" id="b36ZYeO67A"></path><path d="M163.42 176.65C160.47 177.29 157.36 177.02 154.37 175.66C150.43 173.86 147.58 170.56 146.09 166.61C144.6 162.66 144.51 158.15 146.18 153.92C149.01 146.74 148.87 138.95 146.34 132.26C143.83 125.56 138.89 119.86 132.21 116.82C125.54 113.78 118.29 113.93 112.06 116.65C105.83 119.35 100.53 124.66 97.7 131.84C97.59 132.12 97.03 133.55 96.02 136.11L106.05 140.68C107.06 138.12 107.62 136.7 107.73 136.41C109.41 132.17 112.48 129.11 116.15 127.5C119.83 125.9 124.02 125.81 127.96 127.6C131.9 129.4 134.75 132.7 136.25 136.65C137.73 140.61 137.82 145.11 136.15 149.35C133.32 156.53 133.46 164.31 135.99 171C138.51 177.7 143.44 183.41 150.12 186.44C155.17 188.74 160.56 189.22 165.57 188.13C170.58 187.05 175.24 184.41 178.93 180.49C181.07 178.22 181.08 174.51 178.97 172.21C176.85 169.91 173.4 169.89 171.26 172.17C169.11 174.46 166.36 176.02 163.42 176.65Z" id="b46lRQdPAS"></path><path d="M179.44 159.07C179.52 158.05 180.14 149.85 180.21 148.82C180.25 147.38 179.2 146.19 177.86 146.15C176.53 146.1 175.41 147.23 175.37 148.67C175.39 149.69 175.55 157.92 175.57 158.95C175.54 160.1 176.39 161.05 177.45 161.09C178.52 161.13 179.41 160.23 179.44 159.07Z" id="eb6xY910y"></path><path d="M174.75 191.03C174.68 192.05 174.06 200.26 173.98 201.28C173.95 202.72 175 203.92 176.33 203.97C177.67 204 178.79 202.87 178.83 201.43C178.81 200.41 178.64 192.18 178.62 191.16C178.66 190 177.82 189.04 176.75 189.01C175.68 188.98 174.78 189.88 174.75 191.03Z" id="a2q2I7HnDH"></path><path d="M168.21 164.87C168.99 164.08 169.03 162.76 168.29 161.92C167.67 161.14 162.71 154.88 162.09 154.1C161.17 153.04 159.64 153 158.67 153.98C157.69 154.96 157.65 156.61 158.57 157.66C159.03 158.13 161.33 160.51 165.47 164.78C166.78 165.36 167.69 165.39 168.21 164.87Z" id="c1L2wyXzx7"></path><path d="M185.99 185.24C185.21 186.02 185.17 187.34 185.91 188.18C186.53 188.96 191.49 195.23 192.11 196.01C193.03 197.06 194.56 197.1 195.53 196.12C196.51 195.14 196.55 193.49 195.63 192.44C195.17 191.97 192.87 189.59 188.73 185.32C187.42 184.74 186.51 184.71 185.99 185.24Z" id="b1CtEngG17"></path><path d="M192.08 173.41C191.01 173.38 190.12 174.28 190.08 175.43C190.05 176.58 190.9 177.54 191.97 177.57C192.92 177.65 200.55 178.32 201.5 178.4C202.84 178.44 203.95 177.31 203.99 175.87C204.03 174.44 202.98 173.23 201.64 173.19C199.73 173.24 193.03 173.39 192.08 173.41Z" id="a8PzYJ5on"></path><path d="M196.6 158.92C197.57 157.93 197.62 156.29 196.7 155.24C195.78 154.19 194.25 154.14 193.28 155.13C192.62 155.87 187.32 161.81 186.66 162.55C185.88 163.34 185.84 164.66 186.57 165.49C187.31 166.33 188.53 166.37 189.31 165.58C190.77 164.25 195.87 159.58 196.6 158.92Z" id="b1mtzb5RDo"></path><path d="M242.47 140.41C238.35 150.88 236.05 156.7 235.6 157.86C209.94 157.99 185.59 174.24 174.94 201.25C160.69 237.41 176.41 279.16 210.06 294.48C243.71 309.8 282.55 292.91 296.8 256.73C307.45 229.73 301.37 199.63 283.6 179.72C284.06 178.56 286.35 172.74 290.48 162.27L242.47 140.41ZM213.88 210.2C206.49 206.83 203.03 197.66 206.17 189.72C209.3 181.77 217.83 178.05 225.22 181.42C232.62 184.78 236.07 193.96 232.94 201.9C229.81 209.85 221.27 213.56 213.88 210.2Z" id="c2MflTes8"></path><path d="M330.1 185.27C327.16 185.9 324.05 185.63 321.06 184.27C317.12 182.47 314.27 179.17 312.77 175.22C311.29 171.27 311.2 166.77 312.87 162.53C315.7 155.35 315.56 147.57 313.03 140.87C310.51 134.17 305.58 128.47 298.9 125.43C292.22 122.39 284.97 122.54 278.75 125.26C272.52 127.97 267.21 133.27 264.39 140.45C264.28 140.74 263.71 142.16 262.7 144.72L272.73 149.29C273.74 146.73 274.31 145.31 274.42 145.02C276.09 140.78 279.16 137.72 282.84 136.11C286.52 134.52 290.71 134.42 294.65 136.22C298.59 138.01 301.44 141.31 302.93 145.27C304.42 149.22 304.51 153.72 302.84 157.96C300.01 165.14 300.15 172.92 302.68 179.61C305.19 186.31 310.13 192.02 316.81 195.05C321.86 197.35 327.25 197.83 332.26 196.74C337.27 195.66 341.93 193.02 345.61 189.1C347.75 186.83 347.77 183.12 345.65 180.82C343.53 178.53 340.08 178.51 337.95 180.78C335.8 183.07 333.05 184.63 330.1 185.27Z" id="devtEc68T"></path><path d="M346.13 167.69C346.21 166.66 346.82 158.46 346.9 157.44C346.94 156 345.89 154.8 344.55 154.76C343.21 154.72 342.1 155.84 342.06 157.28C342.08 158.31 342.24 166.53 342.26 167.56C342.23 168.71 343.07 169.67 344.14 169.71C345.2 169.74 346.1 168.84 346.13 167.69Z" id="e3y0CYgNc4"></path><path d="M341.44 199.64C341.36 200.67 340.75 208.87 340.67 209.9C340.63 211.33 341.68 212.53 343.02 212.58C344.36 212.62 345.47 211.48 345.51 210.05C345.49 209.02 345.33 200.8 345.31 199.77C345.34 198.62 344.5 197.66 343.43 197.62C342.36 197.59 341.47 198.49 341.44 199.64Z" id="c3LbEJ1mnd"></path><path d="M334.89 173.48C335.67 172.69 335.71 171.37 334.98 170.54C334.36 169.75 329.39 163.49 328.77 162.71C327.86 161.66 326.33 161.61 325.35 162.6C324.38 163.58 324.33 165.23 325.25 166.27C325.71 166.75 328.01 169.12 332.16 173.39C333.46 173.98 334.38 174.01 334.89 173.48Z" id="b2gjyN1XYo"></path><path d="M352.67 193.85C351.9 194.64 351.86 195.96 352.59 196.79C353.21 197.58 358.17 203.84 358.79 204.62C359.71 205.67 361.24 205.72 362.22 204.73C363.19 203.75 363.24 202.1 362.32 201.05C361.86 200.58 359.56 198.21 355.41 193.93C354.11 193.35 353.19 193.33 352.67 193.85Z" id="e4LagxbCoX"></path><path d="M358.76 182.02C357.69 181.99 356.8 182.9 356.77 184.04C356.74 185.19 357.58 186.15 358.65 186.18C359.6 186.27 367.23 186.93 368.19 187.01C369.52 187.06 370.64 185.92 370.68 184.48C370.72 183.05 369.67 181.85 368.33 181.8C366.42 181.85 359.72 182 358.76 182.02Z" id="b4ox8EQY7T"></path><path d="M363.28 167.53C364.26 166.55 364.3 164.9 363.39 163.85C362.47 162.8 360.94 162.76 359.96 163.74C359.3 164.48 354 170.42 353.34 171.16C352.56 171.95 352.53 173.27 353.26 174.11C353.99 174.94 355.22 174.99 356 174.19C357.45 172.86 362.55 168.2 363.28 167.53Z" id="c2qzfGuodQ"></path></defs><g><g><g><g><filter id="shadow4650614" x="94.5" y="13.64" width="151.37" height="178.72" filterUnits="userSpaceOnUse" primitiveUnits="userSpaceOnUse"><feFlood></feFlood><feComposite in2="SourceAlpha" operator="in"></feComposite><feGaussianBlur stdDeviation="1"></feGaussianBlur><feOffset dx="1" dy="1" result="afterOffset"></feOffset><feFlood flood-color="#000000" flood-opacity="0.5"></feFlood><feComposite in2="afterOffset" operator="in"></feComposite><feMorphology operator="dilate" radius="1"></feMorphology><feComposite in2="SourceAlpha" operator="out"></feComposite></filter><path d="M176.29 22.64C172.16 33.11 169.87 38.93 169.41 40.09C143.75 40.22 119.4 56.47 108.76 83.47C94.5 119.64 110.22 161.38 143.87 176.71C177.52 192.03 216.36 175.13 230.62 138.96C241.26 111.96 235.18 81.85 217.41 61.95C217.87 60.79 220.16 54.97 224.29 44.5L176.29 22.64ZM147.69 92.42C140.3 89.06 136.85 79.89 139.98 71.94C143.11 64 151.64 60.28 159.04 63.65C166.43 67.01 169.88 76.19 166.75 84.13C163.62 92.08 155.09 95.79 147.69 92.42Z" id="d4TSWKwhGj" fill="white" fill-opacity="1" filter="url(#shadow4650614)"></path></g><use xlink:href="#cojw3Sq4q" opacity="1" fill="#ff0000" fill-opacity="1"></use><g><use xlink:href="#cojw3Sq4q" opacity="1" fill-opacity="0" stroke="#000000" stroke-width="1" stroke-opacity="0"></use></g><g><filter id="shadow15063267" x="94.5" y="13.64" width="151.37" height="178.72" filterUnits="userSpaceOnUse" primitiveUnits="userSpaceOnUse"><feFlood></feFlood><feComposite in2="SourceAlpha" operator="out"></feComposite><feGaussianBlur stdDeviation="1"></feGaussianBlur><feOffset dx="1" dy="1" result="afterOffset"></feOffset><feFlood flood-color="#000000" flood-opacity="0.5"></feFlood><feComposite in2="afterOffset" operator="in"></feComposite><feMorphology operator="dilate" radius="1"></feMorphology><feComposite in2="SourceAlpha" operator="in"></feComposite></filter><path d="M176.29 22.64C172.16 33.11 169.87 38.93 169.41 40.09C143.75 40.22 119.4 56.47 108.76 83.47C94.5 119.64 110.22 161.38 143.87 176.71C177.52 192.03 216.36 175.13 230.62 138.96C241.26 111.96 235.18 81.85 217.41 61.95C217.87 60.79 220.16 54.97 224.29 44.5L176.29 22.64ZM147.69 92.42C140.3 89.06 136.85 79.89 139.98 71.94C143.11 64 151.64 60.28 159.04 63.65C166.43 67.01 169.88 76.19 166.75 84.13C163.62 92.08 155.09 95.79 147.69 92.42Z" id="a3K3ifrLZx" fill="white" fill-opacity="1" filter="url(#shadow15063267)"></path></g></g><g><g><filter id="shadow13765911" x="187.52" y="-3.59" width="103.52" height="93.12" filterUnits="userSpaceOnUse" primitiveUnits="userSpaceOnUse"><feFlood></feFlood><feComposite in2="SourceAlpha" operator="in"></feComposite><feGaussianBlur stdDeviation="1"></feGaussianBlur><feOffset dx="1" dy="1" result="afterOffset"></feOffset><feFlood flood-color="#000000" flood-opacity="0.5"></feFlood><feComposite in2="afterOffset" operator="in"></feComposite><feMorphology operator="dilate" radius="1"></feMorphology><feComposite in2="SourceAlpha" operator="out"></feComposite></filter><path d="M263.92 67.49C260.97 68.13 257.86 67.86 254.87 66.5C250.93 64.7 248.08 61.4 246.59 57.45C245.1 53.5 245.01 48.99 246.68 44.76C249.51 37.58 249.37 29.79 246.84 23.1C244.33 16.4 239.39 10.7 232.71 7.66C226.03 4.62 218.79 4.77 212.56 7.49C206.33 10.19 201.03 15.5 198.2 22.68C198.09 22.97 197.53 24.39 196.52 26.95L206.55 31.52C207.56 28.96 208.12 27.54 208.23 27.25C209.9 23.01 212.97 19.95 216.65 18.34C220.33 16.74 224.52 16.65 228.46 18.44C232.4 20.24 235.25 23.54 236.75 27.49C238.23 31.45 238.32 35.95 236.65 40.19C233.82 47.37 233.96 55.15 236.49 61.84C239.01 68.54 243.94 74.25 250.62 77.28C255.67 79.58 261.06 80.06 266.07 78.97C271.08 77.89 275.74 75.25 279.43 71.33C281.56 69.06 281.58 65.35 279.46 63.05C277.35 60.75 273.9 60.73 271.76 63.01C269.61 65.3 266.86 66.86 263.92 67.49Z" id="cF8TcPEQ3" fill="white" fill-opacity="1" filter="url(#shadow13765911)"></path></g><use xlink:href="#a3RxCPfVeS" opacity="1" fill="#ff0000" fill-opacity="1"></use><g><use xlink:href="#a3RxCPfVeS" opacity="1" fill-opacity="0" stroke="#000000" stroke-width="1" stroke-opacity="0"></use></g><g><filter id="shadow11984187" x="187.52" y="-3.59" width="103.52" height="93.12" filterUnits="userSpaceOnUse" primitiveUnits="userSpaceOnUse"><feFlood></feFlood><feComposite in2="SourceAlpha" operator="out"></feComposite><feGaussianBlur stdDeviation="1"></feGaussianBlur><feOffset dx="1" dy="1" result="afterOffset"></feOffset><feFlood flood-color="#000000" flood-opacity="0.5"></feFlood><feComposite in2="afterOffset" operator="in"></feComposite><feMorphology operator="dilate" radius="1"></feMorphology><feComposite in2="SourceAlpha" operator="in"></feComposite></filter><path d="M263.92 67.49C260.97 68.13 257.86 67.86 254.87 66.5C250.93 64.7 248.08 61.4 246.59 57.45C245.1 53.5 245.01 48.99 246.68 44.76C249.51 37.58 249.37 29.79 246.84 23.1C244.33 16.4 239.39 10.7 232.71 7.66C226.03 4.62 218.79 4.77 212.56 7.49C206.33 10.19 201.03 15.5 198.2 22.68C198.09 22.97 197.53 24.39 196.52 26.95L206.55 31.52C207.56 28.96 208.12 27.54 208.23 27.25C209.9 23.01 212.97 19.95 216.65 18.34C220.33 16.74 224.52 16.65 228.46 18.44C232.4 20.24 235.25 23.54 236.75 27.49C238.23 31.45 238.32 35.95 236.65 40.19C233.82 47.37 233.96 55.15 236.49 61.84C239.01 68.54 243.94 74.25 250.62 77.28C255.67 79.58 261.06 80.06 266.07 78.97C271.08 77.89 275.74 75.25 279.43 71.33C281.56 69.06 281.58 65.35 279.46 63.05C277.35 60.75 273.9 60.73 271.76 63.01C269.61 65.3 266.86 66.86 263.92 67.49Z" id="dIztUWK3G" fill="white" fill-opacity="1" filter="url(#shadow11984187)"></path></g></g><g><g><filter id="shadow16017005" x="266.87" y="27.99" width="23.84" height="33.94" filterUnits="userSpaceOnUse" primitiveUnits="userSpaceOnUse"><feFlood></feFlood><feComposite in2="SourceAlpha" operator="in"></feComposite><feGaussianBlur stdDeviation="1"></feGaussianBlur><feOffset dx="1" dy="1" result="afterOffset"></feOffset><feFlood flood-color="#000000" flood-opacity="0.5"></feFlood><feComposite in2="afterOffset" operator="in"></feComposite><feMorphology operator="dilate" radius="1"></feMorphology><feComposite in2="SourceAlpha" operator="out"></feComposite></filter><path d="M279.94 49.91C280.02 48.89 280.63 40.69 280.71 39.66C280.75 38.22 279.7 37.03 278.36 36.99C277.03 36.94 275.91 38.07 275.87 39.51C275.89 40.53 276.05 48.76 276.07 49.79C276.04 50.94 276.88 51.89 277.95 51.93C279.02 51.97 279.91 51.07 279.94 49.91Z" id="cbujEkVp4" fill="white" fill-opacity="1" filter="url(#shadow16017005)"></path></g><use xlink:href="#i10mC2cVgA" opacity="1" fill="#ff0000" fill-opacity="1"></use><g><use xlink:href="#i10mC2cVgA" opacity="1" fill-opacity="0" stroke="#000000" stroke-width="1" stroke-opacity="0"></use></g><g><filter id="shadow11701996" x="266.87" y="27.99" width="23.84" height="33.94" filterUnits="userSpaceOnUse" primitiveUnits="userSpaceOnUse"><feFlood></feFlood><feComposite in2="SourceAlpha" operator="out"></feComposite><feGaussianBlur stdDeviation="1"></feGaussianBlur><feOffset dx="1" dy="1" result="afterOffset"></feOffset><feFlood flood-color="#000000" flood-opacity="0.5"></feFlood><feComposite in2="afterOffset" operator="in"></feComposite><feMorphology operator="dilate" radius="1"></feMorphology><feComposite in2="SourceAlpha" operator="in"></feComposite></filter><path d="M279.94 49.91C280.02 48.89 280.63 40.69 280.71 39.66C280.75 38.22 279.7 37.03 278.36 36.99C277.03 36.94 275.91 38.07 275.87 39.51C275.89 40.53 276.05 48.76 276.07 49.79C276.04 50.94 276.88 51.89 277.95 51.93C279.02 51.97 279.91 51.07 279.94 49.91Z" id="cY8vDSIbm" fill="white" fill-opacity="1" filter="url(#shadow11701996)"></path></g></g><g><g><filter id="shadow15355059" x="265.48" y="70.85" width="23.85" height="33.96" filterUnits="userSpaceOnUse" primitiveUnits="userSpaceOnUse"><feFlood></feFlood><feComposite in2="SourceAlpha" operator="in"></feComposite><feGaussianBlur stdDeviation="1"></feGaussianBlur><feOffset dx="1" dy="1" result="afterOffset"></feOffset><feFlood flood-color="#000000" flood-opacity="0.5"></feFlood><feComposite in2="afterOffset" operator="in"></feComposite><feMorphology operator="dilate" radius="1"></feMorphology><feComposite in2="SourceAlpha" operator="out"></feComposite></filter><path d="M275.25 81.87C275.17 82.89 274.56 91.1 274.48 92.13C274.44 93.56 275.5 94.76 276.83 94.81C278.17 94.84 279.29 93.71 279.33 92.27C279.31 91.25 279.14 83.02 279.12 82C279.16 80.84 278.32 79.88 277.24 79.85C276.18 79.82 275.28 80.72 275.25 81.87Z" id="dUYjV5jXw" fill="white" fill-opacity="1" filter="url(#shadow15355059)"></path></g><use xlink:href="#a3JtOoiNWJ" opacity="1" fill="#ff0000" fill-opacity="1"></use><g><use xlink:href="#a3JtOoiNWJ" opacity="1" fill-opacity="0" stroke="#000000" stroke-width="1" stroke-opacity="0"></use></g><g><filter id="shadow7962403" x="265.48" y="70.85" width="23.85" height="33.96" filterUnits="userSpaceOnUse" primitiveUnits="userSpaceOnUse"><feFlood></feFlood><feComposite in2="SourceAlpha" operator="out"></feComposite><feGaussianBlur stdDeviation="1"></feGaussianBlur><feOffset dx="1" dy="1" result="afterOffset"></feOffset><feFlood flood-color="#000000" flood-opacity="0.5"></feFlood><feComposite in2="afterOffset" operator="in"></feComposite><feMorphology operator="dilate" radius="1"></feMorphology><feComposite in2="SourceAlpha" operator="in"></feComposite></filter><path d="M275.25 81.87C275.17 82.89 274.56 91.1 274.48 92.13C274.44 93.56 275.5 94.76 276.83 94.81C278.17 94.84 279.29 93.71 279.33 92.27C279.31 91.25 279.14 83.02 279.12 82C279.16 80.84 278.32 79.88 277.24 79.85C276.18 79.82 275.28 80.72 275.25 81.87Z" id="d3gP1Usqd5" fill="white" fill-opacity="1" filter="url(#shadow7962403)"></path></g></g><g><g><filter id="shadow5297302" x="249.4" y="35.11" width="29.91" height="30.97" filterUnits="userSpaceOnUse" primitiveUnits="userSpaceOnUse"><feFlood></feFlood><feComposite in2="SourceAlpha" operator="in"></feComposite><feGaussianBlur stdDeviation="1"></feGaussianBlur><feOffset dx="1" dy="1" result="afterOffset"></feOffset><feFlood flood-color="#000000" flood-opacity="0.5"></feFlood><feComposite in2="afterOffset" operator="in"></feComposite><feMorphology operator="dilate" radius="1"></feMorphology><feComposite in2="SourceAlpha" operator="out"></feComposite></filter><path d="M268.71 55.71C269.48 54.92 269.52 53.6 268.79 52.76C268.17 51.98 263.21 45.72 262.59 44.94C261.67 43.89 260.14 43.84 259.17 44.82C258.19 45.81 258.15 47.45 259.07 48.5C259.53 48.97 261.83 51.35 265.97 55.62C267.28 56.21 268.19 56.23 268.71 55.71Z" id="a7HLpWhshP" fill="white" fill-opacity="1" filter="url(#shadow5297302)"></path></g><use xlink:href="#bFtm4PBtv" opacity="1" fill="#ff0000" fill-opacity="1"></use><g><use xlink:href="#bFtm4PBtv" opacity="1" fill-opacity="0" stroke="#000000" stroke-width="1" stroke-opacity="0"></use></g><g><filter id="shadow7217629" x="249.4" y="35.11" width="29.91" height="30.97" filterUnits="userSpaceOnUse" primitiveUnits="userSpaceOnUse"><feFlood></feFlood><feComposite in2="SourceAlpha" operator="out"></feComposite><feGaussianBlur stdDeviation="1"></feGaussianBlur><feOffset dx="1" dy="1" result="afterOffset"></feOffset><feFlood flood-color="#000000" flood-opacity="0.5"></feFlood><feComposite in2="afterOffset" operator="in"></feComposite><feMorphology operator="dilate" radius="1"></feMorphology><feComposite in2="SourceAlpha" operator="in"></feComposite></filter><path d="M268.71 55.71C269.48 54.92 269.52 53.6 268.79 52.76C268.17 51.98 263.21 45.72 262.59 44.94C261.67 43.89 260.14 43.84 259.17 44.82C258.19 45.81 258.15 47.45 259.07 48.5C259.53 48.97 261.83 51.35 265.97 55.62C267.28 56.21 268.19 56.23 268.71 55.71Z" id="f5JANy2Zh" fill="white" fill-opacity="1" filter="url(#shadow7217629)"></path></g></g><g><g><filter id="shadow10023790" x="276.88" y="66.7" width="29.91" height="30.96" filterUnits="userSpaceOnUse" primitiveUnits="userSpaceOnUse"><feFlood></feFlood><feComposite in2="SourceAlpha" operator="in"></feComposite><feGaussianBlur stdDeviation="1"></feGaussianBlur><feOffset dx="1" dy="1" result="afterOffset"></feOffset><feFlood flood-color="#000000" flood-opacity="0.5"></feFlood><feComposite in2="afterOffset" operator="in"></feComposite><feMorphology operator="dilate" radius="1"></feMorphology><feComposite in2="SourceAlpha" operator="out"></feComposite></filter><path d="M286.49 76.08C285.71 76.86 285.67 78.19 286.4 79.02C287.02 79.8 291.99 86.07 292.61 86.85C293.53 87.9 295.06 87.95 296.03 86.96C297 85.98 297.05 84.33 296.13 83.28C295.67 82.81 293.37 80.43 289.22 76.16C287.92 75.58 287.01 75.55 286.49 76.08Z" id="caxwhWP2q" fill="white" fill-opacity="1" filter="url(#shadow10023790)"></path></g><use xlink:href="#c6K6F3tKIC" opacity="1" fill="#ff0000" fill-opacity="1"></use><g><use xlink:href="#c6K6F3tKIC" opacity="1" fill-opacity="0" stroke="#000000" stroke-width="1" stroke-opacity="0"></use></g><g><filter id="shadow4288927" x="276.88" y="66.7" width="29.91" height="30.96" filterUnits="userSpaceOnUse" primitiveUnits="userSpaceOnUse"><feFlood></feFlood><feComposite in2="SourceAlpha" operator="out"></feComposite><feGaussianBlur stdDeviation="1"></feGaussianBlur><feOffset dx="1" dy="1" result="afterOffset"></feOffset><feFlood flood-color="#000000" flood-opacity="0.5"></feFlood><feComposite in2="afterOffset" operator="in"></feComposite><feMorphology operator="dilate" radius="1"></feMorphology><feComposite in2="SourceAlpha" operator="in"></feComposite></filter><path d="M286.49 76.08C285.71 76.86 285.67 78.19 286.4 79.02C287.02 79.8 291.99 86.07 292.61 86.85C293.53 87.9 295.06 87.95 296.03 86.96C297 85.98 297.05 84.33 296.13 83.28C295.67 82.81 293.37 80.43 289.22 76.16C287.92 75.58 287.01 75.55 286.49 76.08Z" id="k1hFt7Gf6T" fill="white" fill-opacity="1" filter="url(#shadow4288927)"></path></g></g><g><g><filter id="shadow11689699" x="281.58" y="55.03" width="32.91" height="24.21" filterUnits="userSpaceOnUse" primitiveUnits="userSpaceOnUse"><feFlood></feFlood><feComposite in2="SourceAlpha" operator="in"></feComposite><feGaussianBlur stdDeviation="1"></feGaussianBlur><feOffset dx="1" dy="1" result="afterOffset"></feOffset><feFlood flood-color="#000000" flood-opacity="0.5"></feFlood><feComposite in2="afterOffset" operator="in"></feComposite><feMorphology operator="dilate" radius="1"></feMorphology><feComposite in2="SourceAlpha" operator="out"></feComposite></filter><path d="M292.57 64.25C291.51 64.22 290.61 65.12 290.58 66.27C290.55 67.42 291.39 68.38 292.46 68.41C293.42 68.49 301.05 69.16 302 69.24C303.34 69.29 304.45 68.15 304.49 66.71C304.53 65.28 303.48 64.07 302.14 64.03C300.23 64.08 293.53 64.23 292.57 64.25Z" id="c4UKOkp5O8" fill="white" fill-opacity="1" filter="url(#shadow11689699)"></path></g><use xlink:href="#a3o8TRiEds" opacity="1" fill="#ff0000" fill-opacity="1"></use><g><use xlink:href="#a3o8TRiEds" opacity="1" fill-opacity="0" stroke="#000000" stroke-width="1" stroke-opacity="0"></use></g><g><filter id="shadow4590180" x="281.58" y="55.03" width="32.91" height="24.21" filterUnits="userSpaceOnUse" primitiveUnits="userSpaceOnUse"><feFlood></feFlood><feComposite in2="SourceAlpha" operator="out"></feComposite><feGaussianBlur stdDeviation="1"></feGaussianBlur><feOffset dx="1" dy="1" result="afterOffset"></feOffset><feFlood flood-color="#000000" flood-opacity="0.5"></feFlood><feComposite in2="afterOffset" operator="in"></feComposite><feMorphology operator="dilate" radius="1"></feMorphology><feComposite in2="SourceAlpha" operator="in"></feComposite></filter><path d="M292.57 64.25C291.51 64.22 290.61 65.12 290.58 66.27C290.55 67.42 291.39 68.38 292.46 68.41C293.42 68.49 301.05 69.16 302 69.24C303.34 69.29 304.45 68.15 304.49 66.71C304.53 65.28 303.48 64.07 302.14 64.03C300.23 64.08 293.53 64.23 292.57 64.25Z" id="avUCxpSC" fill="white" fill-opacity="1" filter="url(#shadow4590180)"></path></g></g><g><g><filter id="shadow9601699" x="277.54" y="36.26" width="30.31" height="30.73" filterUnits="userSpaceOnUse" primitiveUnits="userSpaceOnUse"><feFlood></feFlood><feComposite in2="SourceAlpha" operator="in"></feComposite><feGaussianBlur stdDeviation="1"></feGaussianBlur><feOffset dx="1" dy="1" result="afterOffset"></feOffset><feFlood flood-color="#000000" flood-opacity="0.5"></feFlood><feComposite in2="afterOffset" operator="in"></feComposite><feMorphology operator="dilate" radius="1"></feMorphology><feComposite in2="SourceAlpha" operator="out"></feComposite></filter><path d="M297.09 49.76C298.07 48.77 298.11 47.13 297.2 46.08C296.28 45.03 294.75 44.98 293.78 45.97C293.11 46.71 287.82 52.65 287.15 53.39C286.37 54.18 286.34 55.5 287.07 56.33C287.8 57.17 289.03 57.21 289.81 56.42C291.27 55.09 296.37 50.42 297.09 49.76Z" id="ahXETTKo" fill="white" fill-opacity="1" filter="url(#shadow9601699)"></path></g><use xlink:href="#c1fD4nqbzT" opacity="1" fill="#ff0000" fill-opacity="1"></use><g><use xlink:href="#c1fD4nqbzT" opacity="1" fill-opacity="0" stroke="#000000" stroke-width="1" stroke-opacity="0"></use></g><g><filter id="shadow3894157" x="277.54" y="36.26" width="30.31" height="30.73" filterUnits="userSpaceOnUse" primitiveUnits="userSpaceOnUse"><feFlood></feFlood><feComposite in2="SourceAlpha" operator="out"></feComposite><feGaussianBlur stdDeviation="1"></feGaussianBlur><feOffset dx="1" dy="1" result="afterOffset"></feOffset><feFlood flood-color="#000000" flood-opacity="0.5"></feFlood><feComposite in2="afterOffset" operator="in"></feComposite><feMorphology operator="dilate" radius="1"></feMorphology><feComposite in2="SourceAlpha" operator="in"></feComposite></filter><path d="M297.09 49.76C298.07 48.77 298.11 47.13 297.2 46.08C296.28 45.03 294.75 44.98 293.78 45.97C293.11 46.71 287.82 52.65 287.15 53.39C286.37 54.18 286.34 55.5 287.07 56.33C287.8 57.17 289.03 57.21 289.81 56.42C291.27 55.09 296.37 50.42 297.09 49.76Z" id="aAd18nKaU" fill="white" fill-opacity="1" filter="url(#shadow3894157)"></path></g></g><g><g><filter id="shadow3148012" x="-6" y="122.8" width="151.37" height="178.72" filterUnits="userSpaceOnUse" primitiveUnits="userSpaceOnUse"><feFlood></feFlood><feComposite in2="SourceAlpha" operator="in"></feComposite><feGaussianBlur stdDeviation="1"></feGaussianBlur><feOffset dx="1" dy="1" result="afterOffset"></feOffset><feFlood flood-color="#000000" flood-opacity="0.5"></feFlood><feComposite in2="afterOffset" operator="in"></feComposite><feMorphology operator="dilate" radius="1"></feMorphology><feComposite in2="SourceAlpha" operator="out"></feComposite></filter><path d="M75.79 131.8C71.66 142.27 69.37 148.09 68.91 149.25C43.25 149.38 18.9 165.63 8.26 192.63C-6 228.8 9.73 270.54 43.38 285.87C77.03 301.19 115.86 284.29 130.12 248.12C140.76 221.12 134.68 191.01 116.92 171.11C117.37 169.94 119.67 164.13 123.79 153.66L75.79 131.8ZM47.2 201.58C39.8 198.22 36.35 189.05 39.48 181.1C42.61 173.16 51.15 169.44 58.54 172.81C65.93 176.17 69.39 185.35 66.25 193.29C63.12 201.23 54.59 204.95 47.2 201.58Z" id="eZV5hNZAG" fill="white" fill-opacity="1" filter="url(#shadow3148012)"></path></g><use xlink:href="#b36ZYeO67A" opacity="1" fill="#0000ff" fill-opacity="1"></use><g><use xlink:href="#b36ZYeO67A" opacity="1" fill-opacity="0" stroke="#000000" stroke-width="1" stroke-opacity="0"></use></g><g><filter id="shadow6928510" x="-6" y="122.8" width="151.37" height="178.72" filterUnits="userSpaceOnUse" primitiveUnits="userSpaceOnUse"><feFlood></feFlood><feComposite in2="SourceAlpha" operator="out"></feComposite><feGaussianBlur stdDeviation="1"></feGaussianBlur><feOffset dx="1" dy="1" result="afterOffset"></feOffset><feFlood flood-color="#000000" flood-opacity="0.5"></feFlood><feComposite in2="afterOffset" operator="in"></feComposite><feMorphology operator="dilate" radius="1"></feMorphology><feComposite in2="SourceAlpha" operator="in"></feComposite></filter><path d="M75.79 131.8C71.66 142.27 69.37 148.09 68.91 149.25C43.25 149.38 18.9 165.63 8.26 192.63C-6 228.8 9.73 270.54 43.38 285.87C77.03 301.19 115.86 284.29 130.12 248.12C140.76 221.12 134.68 191.01 116.92 171.11C117.37 169.94 119.67 164.13 123.79 153.66L75.79 131.8ZM47.2 201.58C39.8 198.22 36.35 189.05 39.48 181.1C42.61 173.16 51.15 169.44 58.54 172.81C65.93 176.17 69.39 185.35 66.25 193.29C63.12 201.23 54.59 204.95 47.2 201.58Z" id="k3jnBl1fQ2" fill="white" fill-opacity="1" filter="url(#shadow6928510)"></path></g></g><g><g><filter id="shadow2062146" x="87.02" y="105.57" width="103.52" height="93.12" filterUnits="userSpaceOnUse" primitiveUnits="userSpaceOnUse"><feFlood></feFlood><feComposite in2="SourceAlpha" operator="in"></feComposite><feGaussianBlur stdDeviation="1"></feGaussianBlur><feOffset dx="1" dy="1" result="afterOffset"></feOffset><feFlood flood-color="#000000" flood-opacity="0.5"></feFlood><feComposite in2="afterOffset" operator="in"></feComposite><feMorphology operator="dilate" radius="1"></feMorphology><feComposite in2="SourceAlpha" operator="out"></feComposite></filter><path d="M163.42 176.65C160.47 177.29 157.36 177.02 154.37 175.66C150.43 173.86 147.58 170.56 146.09 166.61C144.6 162.66 144.51 158.15 146.18 153.92C149.01 146.74 148.87 138.95 146.34 132.26C143.83 125.56 138.89 119.86 132.21 116.82C125.54 113.78 118.29 113.93 112.06 116.65C105.83 119.35 100.53 124.66 97.7 131.84C97.59 132.12 97.03 133.55 96.02 136.11L106.05 140.68C107.06 138.12 107.62 136.7 107.73 136.41C109.41 132.17 112.48 129.11 116.15 127.5C119.83 125.9 124.02 125.81 127.96 127.6C131.9 129.4 134.75 132.7 136.25 136.65C137.73 140.61 137.82 145.11 136.15 149.35C133.32 156.53 133.46 164.31 135.99 171C138.51 177.7 143.44 183.41 150.12 186.44C155.17 188.74 160.56 189.22 165.57 188.13C170.58 187.05 175.24 184.41 178.93 180.49C181.07 178.22 181.08 174.51 178.97 172.21C176.85 169.91 173.4 169.89 171.26 172.17C169.11 174.46 166.36 176.02 163.42 176.65Z" id="bIheMwOs6" fill="white" fill-opacity="1" filter="url(#shadow2062146)"></path></g><use xlink:href="#b46lRQdPAS" opacity="1" fill="#0000ff" fill-opacity="1"></use><g><use xlink:href="#b46lRQdPAS" opacity="1" fill-opacity="0" stroke="#000000" stroke-width="1" stroke-opacity="0"></use></g><g><filter id="shadow14638593" x="87.02" y="105.57" width="103.52" height="93.12" filterUnits="userSpaceOnUse" primitiveUnits="userSpaceOnUse"><feFlood></feFlood><feComposite in2="SourceAlpha" operator="out"></feComposite><feGaussianBlur stdDeviation="1"></feGaussianBlur><feOffset dx="1" dy="1" result="afterOffset"></feOffset><feFlood flood-color="#000000" flood-opacity="0.5"></feFlood><feComposite in2="afterOffset" operator="in"></feComposite><feMorphology operator="dilate" radius="1"></feMorphology><feComposite in2="SourceAlpha" operator="in"></feComposite></filter><path d="M163.42 176.65C160.47 177.29 157.36 177.02 154.37 175.66C150.43 173.86 147.58 170.56 146.09 166.61C144.6 162.66 144.51 158.15 146.18 153.92C149.01 146.74 148.87 138.95 146.34 132.26C143.83 125.56 138.89 119.86 132.21 116.82C125.54 113.78 118.29 113.93 112.06 116.65C105.83 119.35 100.53 124.66 97.7 131.84C97.59 132.12 97.03 133.55 96.02 136.11L106.05 140.68C107.06 138.12 107.62 136.7 107.73 136.41C109.41 132.17 112.48 129.11 116.15 127.5C119.83 125.9 124.02 125.81 127.96 127.6C131.9 129.4 134.75 132.7 136.25 136.65C137.73 140.61 137.82 145.11 136.15 149.35C133.32 156.53 133.46 164.31 135.99 171C138.51 177.7 143.44 183.41 150.12 186.44C155.17 188.74 160.56 189.22 165.57 188.13C170.58 187.05 175.24 184.41 178.93 180.49C181.07 178.22 181.08 174.51 178.97 172.21C176.85 169.91 173.4 169.89 171.26 172.17C169.11 174.46 166.36 176.02 163.42 176.65Z" id="a6adWopWt" fill="white" fill-opacity="1" filter="url(#shadow14638593)"></path></g></g><g><g><filter id="shadow13076811" x="166.37" y="137.15" width="23.84" height="33.94" filterUnits="userSpaceOnUse" primitiveUnits="userSpaceOnUse"><feFlood></feFlood><feComposite in2="SourceAlpha" operator="in"></feComposite><feGaussianBlur stdDeviation="1"></feGaussianBlur><feOffset dx="1" dy="1" result="afterOffset"></feOffset><feFlood flood-color="#000000" flood-opacity="0.5"></feFlood><feComposite in2="afterOffset" operator="in"></feComposite><feMorphology operator="dilate" radius="1"></feMorphology><feComposite in2="SourceAlpha" operator="out"></feComposite></filter><path d="M179.44 159.07C179.52 158.05 180.14 149.85 180.21 148.82C180.25 147.38 179.2 146.19 177.86 146.15C176.53 146.1 175.41 147.23 175.37 148.67C175.39 149.69 175.55 157.92 175.57 158.95C175.54 160.1 176.39 161.05 177.45 161.09C178.52 161.13 179.41 160.23 179.44 159.07Z" id="blGA1tjoe" fill="white" fill-opacity="1" filter="url(#shadow13076811)"></path></g><use xlink:href="#eb6xY910y" opacity="1" fill="#0000ff" fill-opacity="1"></use><g><use xlink:href="#eb6xY910y" opacity="1" fill-opacity="0" stroke="#000000" stroke-width="1" stroke-opacity="0"></use></g><g><filter id="shadow16170067" x="166.37" y="137.15" width="23.84" height="33.94" filterUnits="userSpaceOnUse" primitiveUnits="userSpaceOnUse"><feFlood></feFlood><feComposite in2="SourceAlpha" operator="out"></feComposite><feGaussianBlur stdDeviation="1"></feGaussianBlur><feOffset dx="1" dy="1" result="afterOffset"></feOffset><feFlood flood-color="#000000" flood-opacity="0.5"></feFlood><feComposite in2="afterOffset" operator="in"></feComposite><feMorphology operator="dilate" radius="1"></feMorphology><feComposite in2="SourceAlpha" operator="in"></feComposite></filter><path d="M179.44 159.07C179.52 158.05 180.14 149.85 180.21 148.82C180.25 147.38 179.2 146.19 177.86 146.15C176.53 146.1 175.41 147.23 175.37 148.67C175.39 149.69 175.55 157.92 175.57 158.95C175.54 160.1 176.39 161.05 177.45 161.09C178.52 161.13 179.41 160.23 179.44 159.07Z" id="a3IP4E69sy" fill="white" fill-opacity="1" filter="url(#shadow16170067)"></path></g></g><g><g><filter id="shadow11942653" x="164.98" y="180.01" width="23.85" height="33.96" filterUnits="userSpaceOnUse" primitiveUnits="userSpaceOnUse"><feFlood></feFlood><feComposite in2="SourceAlpha" operator="in"></feComposite><feGaussianBlur stdDeviation="1"></feGaussianBlur><feOffset dx="1" dy="1" result="afterOffset"></feOffset><feFlood flood-color="#000000" flood-opacity="0.5"></feFlood><feComposite in2="afterOffset" operator="in"></feComposite><feMorphology operator="dilate" radius="1"></feMorphology><feComposite in2="SourceAlpha" operator="out"></feComposite></filter><path d="M174.75 191.03C174.68 192.05 174.06 200.26 173.98 201.28C173.95 202.72 175 203.92 176.33 203.97C177.67 204 178.79 202.87 178.83 201.43C178.81 200.41 178.64 192.18 178.62 191.16C178.66 190 177.82 189.04 176.75 189.01C175.68 188.98 174.78 189.88 174.75 191.03Z" id="a37LXD7JLp" fill="white" fill-opacity="1" filter="url(#shadow11942653)"></path></g><use xlink:href="#a2q2I7HnDH" opacity="1" fill="#0000ff" fill-opacity="1"></use><g><use xlink:href="#a2q2I7HnDH" opacity="1" fill-opacity="0" stroke="#000000" stroke-width="1" stroke-opacity="0"></use></g><g><filter id="shadow8308133" x="164.98" y="180.01" width="23.85" height="33.96" filterUnits="userSpaceOnUse" primitiveUnits="userSpaceOnUse"><feFlood></feFlood><feComposite in2="SourceAlpha" operator="out"></feComposite><feGaussianBlur stdDeviation="1"></feGaussianBlur><feOffset dx="1" dy="1" result="afterOffset"></feOffset><feFlood flood-color="#000000" flood-opacity="0.5"></feFlood><feComposite in2="afterOffset" operator="in"></feComposite><feMorphology operator="dilate" radius="1"></feMorphology><feComposite in2="SourceAlpha" operator="in"></feComposite></filter><path d="M174.75 191.03C174.68 192.05 174.06 200.26 173.98 201.28C173.95 202.72 175 203.92 176.33 203.97C177.67 204 178.79 202.87 178.83 201.43C178.81 200.41 178.64 192.18 178.62 191.16C178.66 190 177.82 189.04 176.75 189.01C175.68 188.98 174.78 189.88 174.75 191.03Z" id="c35sY7X5u7" fill="white" fill-opacity="1" filter="url(#shadow8308133)"></path></g></g><g><g><filter id="shadow12929845" x="148.91" y="144.27" width="29.91" height="30.97" filterUnits="userSpaceOnUse" primitiveUnits="userSpaceOnUse"><feFlood></feFlood><feComposite in2="SourceAlpha" operator="in"></feComposite><feGaussianBlur stdDeviation="1"></feGaussianBlur><feOffset dx="1" dy="1" result="afterOffset"></feOffset><feFlood flood-color="#000000" flood-opacity="0.5"></feFlood><feComposite in2="afterOffset" operator="in"></feComposite><feMorphology operator="dilate" radius="1"></feMorphology><feComposite in2="SourceAlpha" operator="out"></feComposite></filter><path d="M168.21 164.87C168.99 164.08 169.03 162.76 168.29 161.92C167.67 161.14 162.71 154.88 162.09 154.1C161.17 153.04 159.64 153 158.67 153.98C157.69 154.96 157.65 156.61 158.57 157.66C159.03 158.13 161.33 160.51 165.47 164.78C166.78 165.36 167.69 165.39 168.21 164.87Z" id="bjpuOomAc" fill="white" fill-opacity="1" filter="url(#shadow12929845)"></path></g><use xlink:href="#c1L2wyXzx7" opacity="1" fill="#0000ff" fill-opacity="1"></use><g><use xlink:href="#c1L2wyXzx7" opacity="1" fill-opacity="0" stroke="#000000" stroke-width="1" stroke-opacity="0"></use></g><g><filter id="shadow15753927" x="148.91" y="144.27" width="29.91" height="30.97" filterUnits="userSpaceOnUse" primitiveUnits="userSpaceOnUse"><feFlood></feFlood><feComposite in2="SourceAlpha" operator="out"></feComposite><feGaussianBlur stdDeviation="1"></feGaussianBlur><feOffset dx="1" dy="1" result="afterOffset"></feOffset><feFlood flood-color="#000000" flood-opacity="0.5"></feFlood><feComposite in2="afterOffset" operator="in"></feComposite><feMorphology operator="dilate" radius="1"></feMorphology><feComposite in2="SourceAlpha" operator="in"></feComposite></filter><path d="M168.21 164.87C168.99 164.08 169.03 162.76 168.29 161.92C167.67 161.14 162.71 154.88 162.09 154.1C161.17 153.04 159.64 153 158.67 153.98C157.69 154.96 157.65 156.61 158.57 157.66C159.03 158.13 161.33 160.51 165.47 164.78C166.78 165.36 167.69 165.39 168.21 164.87Z" id="akN6wx5jH" fill="white" fill-opacity="1" filter="url(#shadow15753927)"></path></g></g><g><g><filter id="shadow13538113" x="176.38" y="175.86" width="29.91" height="30.96" filterUnits="userSpaceOnUse" primitiveUnits="userSpaceOnUse"><feFlood></feFlood><feComposite in2="SourceAlpha" operator="in"></feComposite><feGaussianBlur stdDeviation="1"></feGaussianBlur><feOffset dx="1" dy="1" result="afterOffset"></feOffset><feFlood flood-color="#000000" flood-opacity="0.5"></feFlood><feComposite in2="afterOffset" operator="in"></feComposite><feMorphology operator="dilate" radius="1"></feMorphology><feComposite in2="SourceAlpha" operator="out"></feComposite></filter><path d="M185.99 185.24C185.21 186.02 185.17 187.34 185.91 188.18C186.53 188.96 191.49 195.23 192.11 196.01C193.03 197.06 194.56 197.1 195.53 196.12C196.51 195.14 196.55 193.49 195.63 192.44C195.17 191.97 192.87 189.59 188.73 185.32C187.42 184.74 186.51 184.71 185.99 185.24Z" id="a6txI7wEa" fill="white" fill-opacity="1" filter="url(#shadow13538113)"></path></g><use xlink:href="#b1CtEngG17" opacity="1" fill="#0000ff" fill-opacity="1"></use><g><use xlink:href="#b1CtEngG17" opacity="1" fill-opacity="0" stroke="#000000" stroke-width="1" stroke-opacity="0"></use></g><g><filter id="shadow10622053" x="176.38" y="175.86" width="29.91" height="30.96" filterUnits="userSpaceOnUse" primitiveUnits="userSpaceOnUse"><feFlood></feFlood><feComposite in2="SourceAlpha" operator="out"></feComposite><feGaussianBlur stdDeviation="1"></feGaussianBlur><feOffset dx="1" dy="1" result="afterOffset"></feOffset><feFlood flood-color="#000000" flood-opacity="0.5"></feFlood><feComposite in2="afterOffset" operator="in"></feComposite><feMorphology operator="dilate" radius="1"></feMorphology><feComposite in2="SourceAlpha" operator="in"></feComposite></filter><path d="M185.99 185.24C185.21 186.02 185.17 187.34 185.91 188.18C186.53 188.96 191.49 195.23 192.11 196.01C193.03 197.06 194.56 197.1 195.53 196.12C196.51 195.14 196.55 193.49 195.63 192.44C195.17 191.97 192.87 189.59 188.73 185.32C187.42 184.74 186.51 184.71 185.99 185.24Z" id="c5dOMKG8EI" fill="white" fill-opacity="1" filter="url(#shadow10622053)"></path></g></g><g><g><filter id="shadow7148291" x="181.08" y="164.19" width="32.91" height="24.21" filterUnits="userSpaceOnUse" primitiveUnits="userSpaceOnUse"><feFlood></feFlood><feComposite in2="SourceAlpha" operator="in"></feComposite><feGaussianBlur stdDeviation="1"></feGaussianBlur><feOffset dx="1" dy="1" result="afterOffset"></feOffset><feFlood flood-color="#000000" flood-opacity="0.5"></feFlood><feComposite in2="afterOffset" operator="in"></feComposite><feMorphology operator="dilate" radius="1"></feMorphology><feComposite in2="SourceAlpha" operator="out"></feComposite></filter><path d="M192.08 173.41C191.01 173.38 190.12 174.28 190.08 175.43C190.05 176.58 190.9 177.54 191.97 177.57C192.92 177.65 200.55 178.32 201.5 178.4C202.84 178.44 203.95 177.31 203.99 175.87C204.03 174.44 202.98 173.23 201.64 173.19C199.73 173.24 193.03 173.39 192.08 173.41Z" id="c4IWvdKko" fill="white" fill-opacity="1" filter="url(#shadow7148291)"></path></g><use xlink:href="#a8PzYJ5on" opacity="1" fill="#0000ff" fill-opacity="1"></use><g><use xlink:href="#a8PzYJ5on" opacity="1" fill-opacity="0" stroke="#000000" stroke-width="1" stroke-opacity="0"></use></g><g><filter id="shadow14992063" x="181.08" y="164.19" width="32.91" height="24.21" filterUnits="userSpaceOnUse" primitiveUnits="userSpaceOnUse"><feFlood></feFlood><feComposite in2="SourceAlpha" operator="out"></feComposite><feGaussianBlur stdDeviation="1"></feGaussianBlur><feOffset dx="1" dy="1" result="afterOffset"></feOffset><feFlood flood-color="#000000" flood-opacity="0.5"></feFlood><feComposite in2="afterOffset" operator="in"></feComposite><feMorphology operator="dilate" radius="1"></feMorphology><feComposite in2="SourceAlpha" operator="in"></feComposite></filter><path d="M192.08 173.41C191.01 173.38 190.12 174.28 190.08 175.43C190.05 176.58 190.9 177.54 191.97 177.57C192.92 177.65 200.55 178.32 201.5 178.4C202.84 178.44 203.95 177.31 203.99 175.87C204.03 174.44 202.98 173.23 201.64 173.19C199.73 173.24 193.03 173.39 192.08 173.41Z" id="aG9sKSjkn" fill="white" fill-opacity="1" filter="url(#shadow14992063)"></path></g></g><g><g><filter id="shadow14297767" x="177.05" y="145.42" width="30.31" height="30.73" filterUnits="userSpaceOnUse" primitiveUnits="userSpaceOnUse"><feFlood></feFlood><feComposite in2="SourceAlpha" operator="in"></feComposite><feGaussianBlur stdDeviation="1"></feGaussianBlur><feOffset dx="1" dy="1" result="afterOffset"></feOffset><feFlood flood-color="#000000" flood-opacity="0.5"></feFlood><feComposite in2="afterOffset" operator="in"></feComposite><feMorphology operator="dilate" radius="1"></feMorphology><feComposite in2="SourceAlpha" operator="out"></feComposite></filter><path d="M196.6 158.92C197.57 157.93 197.62 156.29 196.7 155.24C195.78 154.19 194.25 154.14 193.28 155.13C192.62 155.87 187.32 161.81 186.66 162.55C185.88 163.34 185.84 164.66 186.57 165.49C187.31 166.33 188.53 166.37 189.31 165.58C190.77 164.25 195.87 159.58 196.6 158.92Z" id="bl0usRVlt" fill="white" fill-opacity="1" filter="url(#shadow14297767)"></path></g><use xlink:href="#b1mtzb5RDo" opacity="1" fill="#0000ff" fill-opacity="1"></use><g><use xlink:href="#b1mtzb5RDo" opacity="1" fill-opacity="0" stroke="#000000" stroke-width="1" stroke-opacity="0"></use></g><g><filter id="shadow13344487" x="177.05" y="145.42" width="30.31" height="30.73" filterUnits="userSpaceOnUse" primitiveUnits="userSpaceOnUse"><feFlood></feFlood><feComposite in2="SourceAlpha" operator="out"></feComposite><feGaussianBlur stdDeviation="1"></feGaussianBlur><feOffset dx="1" dy="1" result="afterOffset"></feOffset><feFlood flood-color="#000000" flood-opacity="0.5"></feFlood><feComposite in2="afterOffset" operator="in"></feComposite><feMorphology operator="dilate" radius="1"></feMorphology><feComposite in2="SourceAlpha" operator="in"></feComposite></filter><path d="M196.6 158.92C197.57 157.93 197.62 156.29 196.7 155.24C195.78 154.19 194.25 154.14 193.28 155.13C192.62 155.87 187.32 161.81 186.66 162.55C185.88 163.34 185.84 164.66 186.57 165.49C187.31 166.33 188.53 166.37 189.31 165.58C190.77 164.25 195.87 159.58 196.6 158.92Z" id="avJgRZBFZ" fill="white" fill-opacity="1" filter="url(#shadow13344487)"></path></g></g><g><g><filter id="shadow14390087" x="160.68" y="131.41" width="151.37" height="178.72" filterUnits="userSpaceOnUse" primitiveUnits="userSpaceOnUse"><feFlood></feFlood><feComposite in2="SourceAlpha" operator="in"></feComposite><feGaussianBlur stdDeviation="1"></feGaussianBlur><feOffset dx="1" dy="1" result="afterOffset"></feOffset><feFlood flood-color="#000000" flood-opacity="0.5"></feFlood><feComposite in2="afterOffset" operator="in"></feComposite><feMorphology operator="dilate" radius="1"></feMorphology><feComposite in2="SourceAlpha" operator="out"></feComposite></filter><path d="M242.47 140.41C238.35 150.88 236.05 156.7 235.6 157.86C209.94 157.99 185.59 174.24 174.94 201.25C160.69 237.41 176.41 279.16 210.06 294.48C243.71 309.8 282.55 292.91 296.8 256.73C307.45 229.73 301.37 199.63 283.6 179.72C284.06 178.56 286.35 172.74 290.48 162.27L242.47 140.41ZM213.88 210.2C206.49 206.83 203.03 197.66 206.17 189.72C209.3 181.77 217.83 178.05 225.22 181.42C232.62 184.78 236.07 193.96 232.94 201.9C229.81 209.85 221.27 213.56 213.88 210.2Z" id="d2NrUVTuqO" fill="white" fill-opacity="1" filter="url(#shadow14390087)"></path></g><use xlink:href="#c2MflTes8" opacity="1" fill="#008000" fill-opacity="1"></use><g><use xlink:href="#c2MflTes8" opacity="1" fill-opacity="0" stroke="#000000" stroke-width="1" stroke-opacity="0"></use></g><g><filter id="shadow2171413" x="160.68" y="131.41" width="151.37" height="178.72" filterUnits="userSpaceOnUse" primitiveUnits="userSpaceOnUse"><feFlood></feFlood><feComposite in2="SourceAlpha" operator="out"></feComposite><feGaussianBlur stdDeviation="1"></feGaussianBlur><feOffset dx="1" dy="1" result="afterOffset"></feOffset><feFlood flood-color="#000000" flood-opacity="0.5"></feFlood><feComposite in2="afterOffset" operator="in"></feComposite><feMorphology operator="dilate" radius="1"></feMorphology><feComposite in2="SourceAlpha" operator="in"></feComposite></filter><path d="M242.47 140.41C238.35 150.88 236.05 156.7 235.6 157.86C209.94 157.99 185.59 174.24 174.94 201.25C160.69 237.41 176.41 279.16 210.06 294.48C243.71 309.8 282.55 292.91 296.8 256.73C307.45 229.73 301.37 199.63 283.6 179.72C284.06 178.56 286.35 172.74 290.48 162.27L242.47 140.41ZM213.88 210.2C206.49 206.83 203.03 197.66 206.17 189.72C209.3 181.77 217.83 178.05 225.22 181.42C232.62 184.78 236.07 193.96 232.94 201.9C229.81 209.85 221.27 213.56 213.88 210.2Z" id="aZcJxuJs" fill="white" fill-opacity="1" filter="url(#shadow2171413)"></path></g></g><g><g><filter id="shadow14826096" x="253.7" y="114.18" width="103.52" height="93.12" filterUnits="userSpaceOnUse" primitiveUnits="userSpaceOnUse"><feFlood></feFlood><feComposite in2="SourceAlpha" operator="in"></feComposite><feGaussianBlur stdDeviation="1"></feGaussianBlur><feOffset dx="1" dy="1" result="afterOffset"></feOffset><feFlood flood-color="#000000" flood-opacity="0.5"></feFlood><feComposite in2="afterOffset" operator="in"></feComposite><feMorphology operator="dilate" radius="1"></feMorphology><feComposite in2="SourceAlpha" operator="out"></feComposite></filter><path d="M330.1 185.27C327.16 185.9 324.05 185.63 321.06 184.27C317.12 182.47 314.27 179.17 312.77 175.22C311.29 171.27 311.2 166.77 312.87 162.53C315.7 155.35 315.56 147.57 313.03 140.87C310.51 134.17 305.58 128.47 298.9 125.43C292.22 122.39 284.97 122.54 278.75 125.26C272.52 127.97 267.21 133.27 264.39 140.45C264.28 140.74 263.71 142.16 262.7 144.72L272.73 149.29C273.74 146.73 274.31 145.31 274.42 145.02C276.09 140.78 279.16 137.72 282.84 136.11C286.52 134.52 290.71 134.42 294.65 136.22C298.59 138.01 301.44 141.31 302.93 145.27C304.42 149.22 304.51 153.72 302.84 157.96C300.01 165.14 300.15 172.92 302.68 179.61C305.19 186.31 310.13 192.02 316.81 195.05C321.86 197.35 327.25 197.83 332.26 196.74C337.27 195.66 341.93 193.02 345.61 189.1C347.75 186.83 347.77 183.12 345.65 180.82C343.53 178.53 340.08 178.51 337.95 180.78C335.8 183.07 333.05 184.63 330.1 185.27Z" id="dmuwq06yd" fill="white" fill-opacity="1" filter="url(#shadow14826096)"></path></g><use xlink:href="#devtEc68T" opacity="1" fill="#008000" fill-opacity="1"></use><g><use xlink:href="#devtEc68T" opacity="1" fill-opacity="0" stroke="#000000" stroke-width="1" stroke-opacity="0"></use></g><g><filter id="shadow11062631" x="253.7" y="114.18" width="103.52" height="93.12" filterUnits="userSpaceOnUse" primitiveUnits="userSpaceOnUse"><feFlood></feFlood><feComposite in2="SourceAlpha" operator="out"></feComposite><feGaussianBlur stdDeviation="1"></feGaussianBlur><feOffset dx="1" dy="1" result="afterOffset"></feOffset><feFlood flood-color="#000000" flood-opacity="0.5"></feFlood><feComposite in2="afterOffset" operator="in"></feComposite><feMorphology operator="dilate" radius="1"></feMorphology><feComposite in2="SourceAlpha" operator="in"></feComposite></filter><path d="M330.1 185.27C327.16 185.9 324.05 185.63 321.06 184.27C317.12 182.47 314.27 179.17 312.77 175.22C311.29 171.27 311.2 166.77 312.87 162.53C315.7 155.35 315.56 147.57 313.03 140.87C310.51 134.17 305.58 128.47 298.9 125.43C292.22 122.39 284.97 122.54 278.75 125.26C272.52 127.97 267.21 133.27 264.39 140.45C264.28 140.74 263.71 142.16 262.7 144.72L272.73 149.29C273.74 146.73 274.31 145.31 274.42 145.02C276.09 140.78 279.16 137.72 282.84 136.11C286.52 134.52 290.71 134.42 294.65 136.22C298.59 138.01 301.44 141.31 302.93 145.27C304.42 149.22 304.51 153.72 302.84 157.96C300.01 165.14 300.15 172.92 302.68 179.61C305.19 186.31 310.13 192.02 316.81 195.05C321.86 197.35 327.25 197.83 332.26 196.74C337.27 195.66 341.93 193.02 345.61 189.1C347.75 186.83 347.77 183.12 345.65 180.82C343.53 178.53 340.08 178.51 337.95 180.78C335.8 183.07 333.05 184.63 330.1 185.27Z" id="b473hBI3eX" fill="white" fill-opacity="1" filter="url(#shadow11062631)"></path></g></g><g><g><filter id="shadow16494744" x="333.06" y="145.76" width="23.84" height="33.94" filterUnits="userSpaceOnUse" primitiveUnits="userSpaceOnUse"><feFlood></feFlood><feComposite in2="SourceAlpha" operator="in"></feComposite><feGaussianBlur stdDeviation="1"></feGaussianBlur><feOffset dx="1" dy="1" result="afterOffset"></feOffset><feFlood flood-color="#000000" flood-opacity="0.5"></feFlood><feComposite in2="afterOffset" operator="in"></feComposite><feMorphology operator="dilate" radius="1"></feMorphology><feComposite in2="SourceAlpha" operator="out"></feComposite></filter><path d="M346.13 167.69C346.21 166.66 346.82 158.46 346.9 157.44C346.94 156 345.89 154.8 344.55 154.76C343.21 154.72 342.1 155.84 342.06 157.28C342.08 158.31 342.24 166.53 342.26 167.56C342.23 168.71 343.07 169.67 344.14 169.71C345.2 169.74 346.1 168.84 346.13 167.69Z" id="a43Cy3VOfV" fill="white" fill-opacity="1" filter="url(#shadow16494744)"></path></g><use xlink:href="#e3y0CYgNc4" opacity="1" fill="#008000" fill-opacity="1"></use><g><use xlink:href="#e3y0CYgNc4" opacity="1" fill-opacity="0" stroke="#000000" stroke-width="1" stroke-opacity="0"></use></g><g><filter id="shadow3141776" x="333.06" y="145.76" width="23.84" height="33.94" filterUnits="userSpaceOnUse" primitiveUnits="userSpaceOnUse"><feFlood></feFlood><feComposite in2="SourceAlpha" operator="out"></feComposite><feGaussianBlur stdDeviation="1"></feGaussianBlur><feOffset dx="1" dy="1" result="afterOffset"></feOffset><feFlood flood-color="#000000" flood-opacity="0.5"></feFlood><feComposite in2="afterOffset" operator="in"></feComposite><feMorphology operator="dilate" radius="1"></feMorphology><feComposite in2="SourceAlpha" operator="in"></feComposite></filter><path d="M346.13 167.69C346.21 166.66 346.82 158.46 346.9 157.44C346.94 156 345.89 154.8 344.55 154.76C343.21 154.72 342.1 155.84 342.06 157.28C342.08 158.31 342.24 166.53 342.26 167.56C342.23 168.71 343.07 169.67 344.14 169.71C345.2 169.74 346.1 168.84 346.13 167.69Z" id="cxZf5ESWC" fill="white" fill-opacity="1" filter="url(#shadow3141776)"></path></g></g><g><g><filter id="shadow8420290" x="331.67" y="188.62" width="23.85" height="33.96" filterUnits="userSpaceOnUse" primitiveUnits="userSpaceOnUse"><feFlood></feFlood><feComposite in2="SourceAlpha" operator="in"></feComposite><feGaussianBlur stdDeviation="1"></feGaussianBlur><feOffset dx="1" dy="1" result="afterOffset"></feOffset><feFlood flood-color="#000000" flood-opacity="0.5"></feFlood><feComposite in2="afterOffset" operator="in"></feComposite><feMorphology operator="dilate" radius="1"></feMorphology><feComposite in2="SourceAlpha" operator="out"></feComposite></filter><path d="M341.44 199.64C341.36 200.67 340.75 208.87 340.67 209.9C340.63 211.33 341.68 212.53 343.02 212.58C344.36 212.62 345.47 211.48 345.51 210.05C345.49 209.02 345.33 200.8 345.31 199.77C345.34 198.62 344.5 197.66 343.43 197.62C342.36 197.59 341.47 198.49 341.44 199.64Z" id="b3YnGY9ooM" fill="white" fill-opacity="1" filter="url(#shadow8420290)"></path></g><use xlink:href="#c3LbEJ1mnd" opacity="1" fill="#008000" fill-opacity="1"></use><g><use xlink:href="#c3LbEJ1mnd" opacity="1" fill-opacity="0" stroke="#000000" stroke-width="1" stroke-opacity="0"></use></g><g><filter id="shadow4630718" x="331.67" y="188.62" width="23.85" height="33.96" filterUnits="userSpaceOnUse" primitiveUnits="userSpaceOnUse"><feFlood></feFlood><feComposite in2="SourceAlpha" operator="out"></feComposite><feGaussianBlur stdDeviation="1"></feGaussianBlur><feOffset dx="1" dy="1" result="afterOffset"></feOffset><feFlood flood-color="#000000" flood-opacity="0.5"></feFlood><feComposite in2="afterOffset" operator="in"></feComposite><feMorphology operator="dilate" radius="1"></feMorphology><feComposite in2="SourceAlpha" operator="in"></feComposite></filter><path d="M341.44 199.64C341.36 200.67 340.75 208.87 340.67 209.9C340.63 211.33 341.68 212.53 343.02 212.58C344.36 212.62 345.47 211.48 345.51 210.05C345.49 209.02 345.33 200.8 345.31 199.77C345.34 198.62 344.5 197.66 343.43 197.62C342.36 197.59 341.47 198.49 341.44 199.64Z" id="b26TYze9" fill="white" fill-opacity="1" filter="url(#shadow4630718)"></path></g></g><g><g><filter id="shadow3215131" x="315.59" y="152.89" width="29.91" height="30.97" filterUnits="userSpaceOnUse" primitiveUnits="userSpaceOnUse"><feFlood></feFlood><feComposite in2="SourceAlpha" operator="in"></feComposite><feGaussianBlur stdDeviation="1"></feGaussianBlur><feOffset dx="1" dy="1" result="afterOffset"></feOffset><feFlood flood-color="#000000" flood-opacity="0.5"></feFlood><feComposite in2="afterOffset" operator="in"></feComposite><feMorphology operator="dilate" radius="1"></feMorphology><feComposite in2="SourceAlpha" operator="out"></feComposite></filter><path d="M334.89 173.48C335.67 172.69 335.71 171.37 334.98 170.54C334.36 169.75 329.39 163.49 328.77 162.71C327.86 161.66 326.33 161.61 325.35 162.6C324.38 163.58 324.33 165.23 325.25 166.27C325.71 166.75 328.01 169.12 332.16 173.39C333.46 173.98 334.38 174.01 334.89 173.48Z" id="c2HHHetVAv" fill="white" fill-opacity="1" filter="url(#shadow3215131)"></path></g><use xlink:href="#b2gjyN1XYo" opacity="1" fill="#008000" fill-opacity="1"></use><g><use xlink:href="#b2gjyN1XYo" opacity="1" fill-opacity="0" stroke="#000000" stroke-width="1" stroke-opacity="0"></use></g><g><filter id="shadow1063941" x="315.59" y="152.89" width="29.91" height="30.97" filterUnits="userSpaceOnUse" primitiveUnits="userSpaceOnUse"><feFlood></feFlood><feComposite in2="SourceAlpha" operator="out"></feComposite><feGaussianBlur stdDeviation="1"></feGaussianBlur><feOffset dx="1" dy="1" result="afterOffset"></feOffset><feFlood flood-color="#000000" flood-opacity="0.5"></feFlood><feComposite in2="afterOffset" operator="in"></feComposite><feMorphology operator="dilate" radius="1"></feMorphology><feComposite in2="SourceAlpha" operator="in"></feComposite></filter><path d="M334.89 173.48C335.67 172.69 335.71 171.37 334.98 170.54C334.36 169.75 329.39 163.49 328.77 162.71C327.86 161.66 326.33 161.61 325.35 162.6C324.38 163.58 324.33 165.23 325.25 166.27C325.71 166.75 328.01 169.12 332.16 173.39C333.46 173.98 334.38 174.01 334.89 173.48Z" id="b4Kd8GIe1y" fill="white" fill-opacity="1" filter="url(#shadow1063941)"></path></g></g><g><g><filter id="shadow11325176" x="343.07" y="184.48" width="29.91" height="30.96" filterUnits="userSpaceOnUse" primitiveUnits="userSpaceOnUse"><feFlood></feFlood><feComposite in2="SourceAlpha" operator="in"></feComposite><feGaussianBlur stdDeviation="1"></feGaussianBlur><feOffset dx="1" dy="1" result="afterOffset"></feOffset><feFlood flood-color="#000000" flood-opacity="0.5"></feFlood><feComposite in2="afterOffset" operator="in"></feComposite><feMorphology operator="dilate" radius="1"></feMorphology><feComposite in2="SourceAlpha" operator="out"></feComposite></filter><path d="M352.67 193.85C351.9 194.64 351.86 195.96 352.59 196.79C353.21 197.58 358.17 203.84 358.79 204.62C359.71 205.67 361.24 205.72 362.22 204.73C363.19 203.75 363.24 202.1 362.32 201.05C361.86 200.58 359.56 198.21 355.41 193.93C354.11 193.35 353.19 193.33 352.67 193.85Z" id="a1jDUQw4Kb" fill="white" fill-opacity="1" filter="url(#shadow11325176)"></path></g><use xlink:href="#e4LagxbCoX" opacity="1" fill="#008000" fill-opacity="1"></use><g><use xlink:href="#e4LagxbCoX" opacity="1" fill-opacity="0" stroke="#000000" stroke-width="1" stroke-opacity="0"></use></g><g><filter id="shadow2288252" x="343.07" y="184.48" width="29.91" height="30.96" filterUnits="userSpaceOnUse" primitiveUnits="userSpaceOnUse"><feFlood></feFlood><feComposite in2="SourceAlpha" operator="out"></feComposite><feGaussianBlur stdDeviation="1"></feGaussianBlur><feOffset dx="1" dy="1" result="afterOffset"></feOffset><feFlood flood-color="#000000" flood-opacity="0.5"></feFlood><feComposite in2="afterOffset" operator="in"></feComposite><feMorphology operator="dilate" radius="1"></feMorphology><feComposite in2="SourceAlpha" operator="in"></feComposite></filter><path d="M352.67 193.85C351.9 194.64 351.86 195.96 352.59 196.79C353.21 197.58 358.17 203.84 358.79 204.62C359.71 205.67 361.24 205.72 362.22 204.73C363.19 203.75 363.24 202.1 362.32 201.05C361.86 200.58 359.56 198.21 355.41 193.93C354.11 193.35 353.19 193.33 352.67 193.85Z" id="c1aKfhriRY" fill="white" fill-opacity="1" filter="url(#shadow2288252)"></path></g></g><g><g><filter id="shadow2899903" x="347.77" y="172.8" width="32.91" height="24.21" filterUnits="userSpaceOnUse" primitiveUnits="userSpaceOnUse"><feFlood></feFlood><feComposite in2="SourceAlpha" operator="in"></feComposite><feGaussianBlur stdDeviation="1"></feGaussianBlur><feOffset dx="1" dy="1" result="afterOffset"></feOffset><feFlood flood-color="#000000" flood-opacity="0.5"></feFlood><feComposite in2="afterOffset" operator="in"></feComposite><feMorphology operator="dilate" radius="1"></feMorphology><feComposite in2="SourceAlpha" operator="out"></feComposite></filter><path d="M358.76 182.02C357.69 181.99 356.8 182.9 356.77 184.04C356.74 185.19 357.58 186.15 358.65 186.18C359.6 186.27 367.23 186.93 368.19 187.01C369.52 187.06 370.64 185.92 370.68 184.48C370.72 183.05 369.67 181.85 368.33 181.8C366.42 181.85 359.72 182 358.76 182.02Z" id="a1K4hrygeh" fill="white" fill-opacity="1" filter="url(#shadow2899903)"></path></g><use xlink:href="#b4ox8EQY7T" opacity="1" fill="#008000" fill-opacity="1"></use><g><use xlink:href="#b4ox8EQY7T" opacity="1" fill-opacity="0" stroke="#000000" stroke-width="1" stroke-opacity="0"></use></g><g><filter id="shadow618273" x="347.77" y="172.8" width="32.91" height="24.21" filterUnits="userSpaceOnUse" primitiveUnits="userSpaceOnUse"><feFlood></feFlood><feComposite in2="SourceAlpha" operator="out"></feComposite><feGaussianBlur stdDeviation="1"></feGaussianBlur><feOffset dx="1" dy="1" result="afterOffset"></feOffset><feFlood flood-color="#000000" flood-opacity="0.5"></feFlood><feComposite in2="afterOffset" operator="in"></feComposite><feMorphology operator="dilate" radius="1"></feMorphology><feComposite in2="SourceAlpha" operator="in"></feComposite></filter><path d="M358.76 182.02C357.69 181.99 356.8 182.9 356.77 184.04C356.74 185.19 357.58 186.15 358.65 186.18C359.6 186.27 367.23 186.93 368.19 187.01C369.52 187.06 370.64 185.92 370.68 184.48C370.72 183.05 369.67 181.85 368.33 181.8C366.42 181.85 359.72 182 358.76 182.02Z" id="j1wwudswaw" fill="white" fill-opacity="1" filter="url(#shadow618273)"></path></g></g><g><g><filter id="shadow3963372" x="343.73" y="154.03" width="30.31" height="30.73" filterUnits="userSpaceOnUse" primitiveUnits="userSpaceOnUse"><feFlood></feFlood><feComposite in2="SourceAlpha" operator="in"></feComposite><feGaussianBlur stdDeviation="1"></feGaussianBlur><feOffset dx="1" dy="1" result="afterOffset"></feOffset><feFlood flood-color="#000000" flood-opacity="0.5"></feFlood><feComposite in2="afterOffset" operator="in"></feComposite><feMorphology operator="dilate" radius="1"></feMorphology><feComposite in2="SourceAlpha" operator="out"></feComposite></filter><path d="M363.28 167.53C364.26 166.55 364.3 164.9 363.39 163.85C362.47 162.8 360.94 162.76 359.96 163.74C359.3 164.48 354 170.42 353.34 171.16C352.56 171.95 352.53 173.27 353.26 174.11C353.99 174.94 355.22 174.99 356 174.19C357.45 172.86 362.55 168.2 363.28 167.53Z" id="bKFnNFnEv" fill="white" fill-opacity="1" filter="url(#shadow3963372)"></path></g><use xlink:href="#c2qzfGuodQ" opacity="1" fill="#008000" fill-opacity="1"></use><g><use xlink:href="#c2qzfGuodQ" opacity="1" fill-opacity="0" stroke="#000000" stroke-width="1" stroke-opacity="0"></use></g><g><filter id="shadow14711214" x="343.73" y="154.03" width="30.31" height="30.73" filterUnits="userSpaceOnUse" primitiveUnits="userSpaceOnUse"><feFlood></feFlood><feComposite in2="SourceAlpha" operator="out"></feComposite><feGaussianBlur stdDeviation="1"></feGaussianBlur><feOffset dx="1" dy="1" result="afterOffset"></feOffset><feFlood flood-color="#000000" flood-opacity="0.5"></feFlood><feComposite in2="afterOffset" operator="in"></feComposite><feMorphology operator="dilate" radius="1"></feMorphology><feComposite in2="SourceAlpha" operator="in"></feComposite></filter><path d="M363.28 167.53C364.26 166.55 364.3 164.9 363.39 163.85C362.47 162.8 360.94 162.76 359.96 163.74C359.3 164.48 354 170.42 353.34 171.16C352.56 171.95 352.53 173.27 353.26 174.11C353.99 174.94 355.22 174.99 356 174.19C357.45 172.86 362.55 168.2 363.28 167.53Z" id="bnqD12wWA" fill="white" fill-opacity="1" filter="url(#shadow14711214)"></path></g></g></g></g></svg>